<?xml version="1.0" encoding="UTF-8"?>
<!-- Created with Grafika (https://www.grafika.cc/) -->
<svg xmlns="http://www.w3.org/2000/svg" xmlns:svg="http://www.w3.org/2000/svg" xmlns:xlink="http://www.w3.org/1999/xlink" width="7" height="2.042" viewBox="0 0 14 4.01499939" preserveAspectRatio="xMidYMid meet" id=" 12">
	<defs>
		<style type="text/css">@import url('https://fonts.googleapis.com/css?family=Baloo+Da+2:6');</style>
	</defs>
	<path transform="matrix(0.15287241339683533, 0, 0, 0.15287241339683533, -1.4812250137329102, 0.02015829086303711)" d="M99.119049072,0.225829959 L62.508358002,0.225829959 C61.369354248,0.354575008 60.742858887,1.056579947 60.632156372,2.338150024 L60.632156372,23.544500351 C60.74174881,24.824098587 61.366851807,25.523395538 62.498252869,25.657299042 L99.128036499,25.657299042 C100.259857178,25.523395538 100.884552002,24.823598862 100.994338989,23.544500351 L100.994338989,2.338150024 C100.88394928,1.056579947 100.257354736,0.354575008 99.119049072,0.225829959 L99.119049072,0.225829959 L99.119049072,0.225829959 L99.119049072,0.225829959 Z" fill-rule="evenodd" style="fill:#FF9000;mix-blend-mode:overlay" />
	<path transform="matrix(0.15287241339683533, 0, 0, 0.15287241339683533, -1.4812250137329102, 0.02015829086303711)" d="M73.37575531,9.999129295 C73.101760864,9.608149529 72.694755554,9.286290169 72.153640747,9.034669876 C71.664459229,8.807217598 71.121757507,8.683440208 70.525253296,8.661529541 C70.514938354,8.660860062 70.505554199,8.660180092 70.495452881,8.659729958 C69.263458252,8.593547821 67.687652588,8.955840111 66.952255249,9.668910027 L66.952255249,4.67223978 L64.029159546,4.67223978 L64.029159546,20.044395447 L66.952255249,20.044395447 L66.952255249,14.466599464 C66.952255249,13.5294981 67.04095459,12.821797371 67.217750549,12.34319973 C67.394859314,11.863499641 67.673553467,11.505399704 68.055160522,11.26779747 C68.436553955,11.030397415 68.869758606,10.91119957 69.355560303,10.91119957 C69.778358459,10.91119957 70.130859375,11.00399971 70.411361694,11.189199448 C70.69216156,11.374699593 70.888259888,11.624699593 70.998962402,11.939099312 C71.109657288,12.254000664 71.165458679,12.994597435 71.165458679,14.161899567 L71.165458679,20.044395447 L74.088356018,20.044395447 L74.088356018,13.511799812 C74.088356018,12.512399673 74.037948608,11.774700165 73.937362671,11.299699783 C73.836959839,10.824000359 73.649353027,10.390600204 73.37575531,9.999129295 L73.37575531,9.999129295 L73.37575531,9.999129295 L73.37575531,9.999129295 Z" fill-rule="evenodd" style="fill:#000000;" />
	<path transform="matrix(0.15287241339683533, 0, 0, 0.15287241339683533, -1.4812250137329102, 0.02015829086303711)" d="M82.9140625,13.6062994 C82.9140625,15.200297356 82.841461182,16.201799393 82.695755005,16.610799789 C82.549957275,17.019397736 82.279464722,17.362298965 81.884140015,17.63759613 C81.489349365,17.914499283 81.041641235,18.0522995 80.542358398,18.0522995 C80.105453491,18.0522995 79.74446106,17.94949913 79.460250854,17.743099213 C79.17616272,17.536895752 78.979660034,17.257196426 78.872558594,16.904001236 C78.764953613,16.551000595 78.711364746,15.591899872 78.711364746,14.025499344 L78.711364746,8.908689499 L75.788253784,8.908689499 L75.788253784,15.95529747 C75.788253784,17.003799438 75.920043945,17.825300217 76.183059692,18.419300079 C76.446838379,19.013799667 76.873260498,19.475099564 77.463058472,19.803699493 C78.052642822,20.132295609 78.718154907,20.296499252 79.460250854,20.296499252 C79.571243286,20.296499252 79.681243896,20.292499542 79.790359497,20.28429985 C79.793754578,20.28429985 79.796157837,20.28429985 79.799057007,20.283899307 C81.659454346,20.229696274 82.628753662,19.378795624 83.121963501,18.818000793 L83.121963501,20.044500351 L85.836959839,20.044500351 L85.836959839,8.908689499 L82.9140625,8.908689499 L82.9140625,13.6062994 L82.9140625,13.6062994 L82.9140625,13.6062994 L82.9140625,13.6062994 Z" fill-rule="evenodd" style="fill:#000000;" />
	<path transform="matrix(0.15287241339683533, 0, 0, 0.15287241339683533, -1.4812250137329102, 0.02015829086303711)" d="M94.736450195,17.135099411 C94.282455444,17.690999985 93.732757568,17.968099594 93.087661743,17.968099594 C92.248260498,17.968099594 91.575546265,17.576700211 91.069061279,16.793800354 C90.708755493,16.241800308 90.52835083,15.388898849 90.52835083,14.235397339 C90.52835083,13.11689949 90.760757446,12.28349781 91.225463867,11.734799385 C91.690063477,11.186200142 92.272644043,10.911799431 92.97315979,10.911799431 C93.687454224,10.911799431 94.273651123,11.193199158 94.731460571,11.755599976 C95.189056396,12.318198204 95.418052673,13.236199379 95.418052673,14.507599831 C95.418052673,15.703798294 95.191055298,16.578800201 94.736450195,17.135099411 L94.736450195,17.135099411 L94.736450195,17.135099411 L94.736450195,17.135099411 ZM97.092636108,10.129998207 C96.471054077,9.437970161 95.636657715,8.993909836 94.727539063,8.789719582 C94.467163086,8.719927788 94.16973877,8.670239449 93.839035034,8.655779839 C92.636856079,8.545559883 91.092636108,9.030269623 90.374755859,9.637639999 L90.548851013,4.672359943 L87.625457764,4.672359943 L87.625457764,20.045000076 L90.341156006,20.045000076 L90.341156006,19.198196411 C90.96723938,19.706399918 91.971939087,20.29640007 93.503158569,20.29640007 C93.563156128,20.29640007 93.620162964,20.295900345 93.675262451,20.294595718 C93.715148926,20.295900345 93.754760742,20.29640007 93.794662476,20.29640007 C95.077758789,20.29640007 96.168563843,19.782299042 97.066436768,18.75510025 C97.964553833,17.726900101 98.413253784,16.263000488 98.413253784,14.361700058 C98.413253784,12.522699356 97.972854614,11.112599373 97.092636108,10.129998207 L97.092636108,10.129998207 L97.092636108,10.129998207 L97.092636108,10.129998207 Z" fill-rule="evenodd" style="fill:#000000;" />
	<text transform="matrix(0.03162616863846779, 0, 0, 0.03162616863846779, 3.9133005142211914, 2.034966468811035)" text-anchor="middle" x="0" y="23.05" font-size="100.0px" font-style="normal" font-weight="600" font-family="Baloo Da 2" style="fill:#FFFFFF;">Style</text>
</svg>
